<svg xmlns="http://www.w3.org/2000/svg" version="1.1" xmlns:xlink="http://www.w3.org/1999/xlink" xmlns:svgjs="http://svgjs.dev/svgjs" width="1500" height="1500" viewBox="0 0 1500 1500"><rect width="1500" height="1500" fill="#ffffff"></rect><g transform="matrix(0.6666666666666666,0,0,0.6666666666666666,249.3939393939395,608.4712551836482)"><svg viewBox="0 0 396 112" data-background-color="#ed2647" preserveAspectRatio="xMidYMid meet" height="424" width="1500" xmlns="http://www.w3.org/2000/svg" xmlns:xlink="http://www.w3.org/1999/xlink"><g id="tight-bounds" transform="matrix(1,0,0,1,0.23999999999995225,0.07742719138468601)"><svg viewBox="0 0 395.52 111.8451456172306" height="111.8451456172306" width="395.52"><g><svg viewBox="0 0 665.5675557777138 188.209193451817" height="111.8451456172306" width="395.52"><g><rect width="9.165328079650536" height="136.86703286474386" x="419.51300544411134" y="25.671080293536562" fill="#000000" opacity="1" stroke-width="0" stroke="transparent" fill-opacity="1" class="rect-qz-0" data-fill-palette-color="primary" rx="1%" id="qz-0" data-palette-color="#ffffff"></rect></g><g transform="matrix(1,0,0,1,0,26.011545549418997)"><svg viewBox="0 0 395.52 136.186102352979" height="136.186102352979" width="395.52"><g id="textblocktransform"><svg viewBox="0 0 395.52 136.186102352979" height="136.186102352979" width="395.52" id="textblock"><g><svg viewBox="0 0 395.52 101.63254817987152" height="101.63254817987152" width="395.52"><g transform="matrix(1,0,0,1,0,0)"><svg width="395.52" viewBox="3.45 -36 140.09 36" height="101.63254817987152" data-palette-color="#ffffff"><g class="wordmark-text-0" data-fill-palette-color="primary" id="text-0"><path d="M22.1 0L22.1 0 5.25 0Q4.3 0 3.88-0.43 3.45-0.85 3.45-1.8L3.45-1.8 3.45-34.2Q3.45-35.15 3.88-35.58 4.3-36 5.25-36L5.25-36 22.1-36Q28.35-36 31.38-33.5 34.4-31 34.4-25.8L34.4-25.8 34.4-10.2Q34.4-5 31.38-2.5 28.35 0 22.1 0ZM20.75-26.45L14.8-26.45 14.8-9.45 20.75-9.45Q21.95-9.45 22.53-10.05 23.1-10.65 23.1-11.9L23.1-11.9 23.1-24.05Q23.1-25.3 22.53-25.88 21.95-26.45 20.75-26.45L20.75-26.45ZM68 0L68 0 42.55 0Q41.6 0 41.17-0.43 40.75-0.85 40.75-1.8L40.75-1.8 40.75-34.2Q40.75-35.15 41.17-35.58 41.6-36 42.55-36L42.55-36 50.3-36Q51.25-36 51.67-35.58 52.1-35.15 52.1-34.2L52.1-34.2 52.1-9.45 58.95-9.45 58.95-17.55Q58.95-18.5 59.37-18.93 59.8-19.35 60.75-19.35L60.75-19.35 68-19.35Q68.95-19.35 69.37-18.93 69.8-18.5 69.8-17.55L69.8-17.55 69.8-1.8Q69.8-0.85 69.37-0.43 68.95 0 68 0ZM92.2 0L92.2 0 76.4 0Q75.45 0 75.02-0.43 74.6-0.85 74.6-1.8L74.6-1.8 74.6-7.65Q74.6-8.6 75.02-9.03 75.45-9.45 76.4-9.45L76.4-9.45 89.85-9.45Q90.5-9.45 90.82-9.88 91.15-10.3 91.15-10.9L91.15-10.9Q91.15-11.75 90.82-12.15 90.5-12.55 89.85-12.6L89.85-12.6 82.35-13.65Q78.85-14.15 76.72-15.95 74.6-17.75 74.6-21.95L74.6-21.95 74.6-27.2Q74.6-31.45 77.35-33.73 80.1-36 84.95-36L84.95-36 98.95-36Q99.9-36 100.32-35.58 100.75-35.15 100.75-34.2L100.75-34.2 100.75-28.25Q100.75-27.3 100.32-26.88 99.9-26.45 98.95-26.45L98.95-26.45 87.3-26.45Q86.65-26.45 86.3-26.03 85.95-25.6 85.95-24.95L85.95-24.95Q85.95-24.3 86.3-23.85 86.65-23.4 87.3-23.35L87.3-23.35 94.75-22.35Q98.25-21.85 100.4-20.05 102.55-18.25 102.55-14.05L102.55-14.05 102.55-8.8Q102.55-4.55 99.77-2.27 97 0 92.2 0ZM117.24 0L117.24 0 109.79 0Q108.84 0 108.42-0.43 107.99-0.85 107.99-1.8L107.99-1.8 107.99-34.2Q107.99-35.15 108.42-35.58 108.84-36 109.79-36L109.79-36 117.84-36Q118.64-36 119.17-35.65 119.69-35.3 120.14-34.5L120.14-34.5 124.64-26.35Q124.89-25.9 125.07-25.7 125.24-25.5 125.54-25.5L125.54-25.5 125.99-25.5Q126.29-25.5 126.47-25.7 126.64-25.9 126.89-26.35L126.89-26.35 131.34-34.5Q131.79-35.3 132.32-35.65 132.84-36 133.64-36L133.64-36 141.74-36Q142.69-36 143.12-35.58 143.54-35.15 143.54-34.2L143.54-34.2 143.54-1.8Q143.54-0.85 143.12-0.43 142.69 0 141.74 0L141.74 0 134.04 0Q133.09 0 132.67-0.43 132.24-0.85 132.24-1.8L132.24-1.8 132.24-19.4 129.29-13.95Q128.84-13.1 128.22-12.73 127.59-12.35 126.64-12.35L126.64-12.35 124.64-12.35Q123.69-12.35 123.07-12.73 122.44-13.1 121.99-13.95L121.99-13.95 119.04-19.4 119.04-1.8Q119.04-0.85 118.62-0.43 118.19 0 117.24 0Z" fill="#000000" data-fill-palette-color="primary"></path></g></svg></g></svg></g><g transform="matrix(1,0,0,1,163.310208,125.62555362398287)"><svg viewBox="0 0 232.209792 10.560548728996121" height="10.560548728996121" width="232.209792"><g transform="matrix(1,0,0,1,0,0)"><svg width="232.209792" viewBox="4.2 -37.5 1044.37 47.5" height="10.560548728996121" data-palette-color="#ffffff"><path d="M45.45-17.5L45.45-17.5Q45.45-13.85 44.3-10.68 43.15-7.5 41.03-5.1 38.9-2.7 35.93-1.35 32.95 0 29.35 0L29.35 0 11.7 0 11.7-5 29.35-5Q32.8-5 35.3-6.7 37.8-8.4 39.13-11.23 40.45-14.05 40.45-17.5L40.45-17.5Q40.45-20.95 39.13-23.8 37.8-26.65 35.3-28.33 32.8-30 29.35-30L29.35-30 9.2-30 9.2 0 4.2 0 4.2-35 29.35-35Q32.95-35 35.93-33.65 38.9-32.3 41.03-29.88 43.15-27.45 44.3-24.28 45.45-21.1 45.45-17.5ZM83.2-27.5L83.2 1.25Q83.2 3.65 82.02 5.65 80.85 7.65 78.87 8.83 76.9 10 74.45 10L74.45 10 54.45 10 54.45 5 74.45 5Q76 5 77.1 3.9 78.2 2.8 78.2 1.25L78.2 1.25 78.2 0 64.45 0Q61.6 0 59.12-1.07 56.65-2.15 54.77-4.05 52.9-5.95 51.85-8.43 50.8-10.9 50.8-13.75L50.8-13.75 50.8-27.5 55.8-27.5 55.8-13.75Q55.8-11.35 56.97-9.38 58.15-7.4 60.1-6.23 62.05-5.05 64.45-5L64.45-5 78.2-5 78.2-27.5 83.2-27.5ZM95.4-22.5L95.4 0 90.4 0 90.4-27.5 109.15-27.5Q112-27.5 114.47-26.43 116.95-25.35 118.82-23.45 120.7-21.55 121.75-19.07 122.8-16.6 122.8-13.75L122.8-13.75 122.8 0 117.8 0 117.8-13.75Q117.8-16.15 116.65-18.13 115.5-20.1 113.52-21.3 111.55-22.5 109.15-22.5L109.15-22.5 95.4-22.5ZM160.84-18.75L160.84 0 135.84 0Q133.44 0 131.44-1.18 129.44-2.35 128.27-4.33 127.09-6.3 127.09-8.75L127.09-8.75Q127.09-11.2 128.27-13.18 129.44-15.15 131.44-16.32 133.44-17.5 135.84-17.5L135.84-17.5 153.34-17.5 153.34-12.5 135.84-12.5Q134.29-12.5 133.19-11.4 132.09-10.3 132.09-8.75L132.09-8.75Q132.09-7.2 133.19-6.1 134.29-5 135.84-5L135.84-5 155.84-5 155.84-18.75Q155.84-20.3 154.74-21.4 153.64-22.5 152.09-22.5L152.09-22.5 132.09-22.5 132.09-27.5 152.09-27.5Q154.54-27.5 156.52-26.33 158.49-25.15 159.67-23.18 160.84-21.2 160.84-18.75L160.84-18.75ZM172.84-22.5L172.84 0 167.84 0 167.84-27.5 194.19-27.5Q197.04-27.5 199.52-26.43 201.99-25.35 203.87-23.45 205.74-21.55 206.79-19.07 207.84-16.6 207.84-13.75L207.84-13.75 207.84 0 202.84 0 202.84-13.75Q202.84-16.15 201.69-18.13 200.54-20.1 198.57-21.3 196.59-22.5 194.19-22.5L194.19-22.5 190.34-22.5 190.34 0 185.34 0 185.34-22.5 172.84-22.5ZM220.84-33.75L220.84-33.75Q220.84-32.2 219.74-31.1 218.64-30 217.09-30L217.09-30Q215.54-30 214.44-31.1 213.34-32.2 213.34-33.75L213.34-33.75Q213.34-35.3 214.44-36.4 215.54-37.5 217.09-37.5L217.09-37.5Q218.64-37.5 219.74-36.4 220.84-35.3 220.84-33.75ZM219.59-27.5L219.59 0 214.59 0 214.59-27.5 219.59-27.5ZM255.04-5L255.04 0 238.69 0Q235.84 0 233.36-1.07 230.89-2.15 229.01-4.05 227.14-5.95 226.09-8.43 225.04-10.9 225.04-13.75L225.04-13.75Q225.04-16.6 226.09-19.07 227.14-21.55 229.01-23.45 230.89-25.35 233.36-26.43 235.84-27.5 238.69-27.5L238.69-27.5 255.04-27.5 255.04-22.5 238.69-22.5Q236.29-22.5 234.34-21.3 232.39-20.1 231.21-18.13 230.04-16.15 230.04-13.75L230.04-13.75Q230.04-11.35 231.21-9.38 232.39-7.4 234.34-6.2 236.29-5 238.69-5L238.69-5 255.04-5ZM313.33-5L313.33 0 279.88 0 279.88-35 284.88-35 284.88-5 313.33-5ZM350.68-13.75L350.68-13.75Q350.68-10.9 349.63-8.43 348.58-5.95 346.7-4.05 344.83-2.15 342.35-1.07 339.88 0 337.03 0L337.03 0 329.33 0Q326.48 0 324-1.07 321.53-2.15 319.65-4.05 317.78-5.95 316.73-8.43 315.68-10.9 315.68-13.75L315.68-13.75Q315.68-16.6 316.73-19.07 317.78-21.55 319.65-23.45 321.53-25.35 324-26.43 326.48-27.5 329.33-27.5L329.33-27.5 337.03-27.5Q339.88-27.5 342.35-26.43 344.83-25.35 346.7-23.45 348.58-21.55 349.63-19.07 350.68-16.6 350.68-13.75ZM345.68-13.75L345.68-13.75Q345.68-16.15 344.53-18.13 343.38-20.1 341.4-21.3 339.43-22.5 337.03-22.5L337.03-22.5 329.33-22.5Q326.93-22.5 324.98-21.3 323.03-20.1 321.85-18.13 320.68-16.15 320.68-13.75L320.68-13.75Q320.68-11.35 321.85-9.38 323.03-7.4 324.98-6.2 326.93-5 329.33-5L329.33-5 337.03-5Q339.43-5 341.4-6.2 343.38-7.4 344.53-9.38 345.68-11.35 345.68-13.75ZM386.78-27.5L386.78 1.25Q386.78 3.65 385.6 5.65 384.43 7.65 382.43 8.83 380.43 10 378.03 10L378.03 10 358.03 10 358.03 5 378.03 5Q379.58 5 380.68 3.9 381.78 2.8 381.78 1.25L381.78 1.25 381.78-22.5 368.03-22.5Q365.63-22.5 363.68-21.3 361.73-20.1 360.55-18.13 359.38-16.15 359.38-13.75L359.38-13.75Q359.38-11.35 360.55-9.38 361.73-7.4 363.68-6.23 365.63-5.05 368.03-5L368.03-5 379.28-5 379.28 0 368.03 0Q365.18 0 362.7-1.07 360.23-2.15 358.35-4.05 356.48-5.95 355.43-8.43 354.38-10.9 354.38-13.75L354.38-13.75Q354.38-16.6 355.43-19.07 356.48-21.55 358.35-23.45 360.23-25.35 362.7-26.43 365.18-27.5 368.03-27.5L368.03-27.5 386.78-27.5ZM400.22-33.75L400.22-33.75Q400.22-32.2 399.12-31.1 398.02-30 396.47-30L396.47-30Q394.92-30 393.82-31.1 392.72-32.2 392.72-33.75L392.72-33.75Q392.72-35.3 393.82-36.4 394.92-37.5 396.47-37.5L396.47-37.5Q398.02-37.5 399.12-36.4 400.22-35.3 400.22-33.75ZM398.97-27.5L398.97 0 393.97 0 393.97-27.5 398.97-27.5ZM434.87-8.75L434.87-8.75Q434.87-6.3 433.7-4.33 432.52-2.35 430.55-1.18 428.57 0 426.12 0L426.12 0 404.87 0 404.87-5 426.12-5Q427.67-5 428.77-6.1 429.87-7.2 429.87-8.75L429.87-8.75Q429.87-10.3 428.77-11.4 427.67-12.5 426.12-12.5L426.12-12.5 412.37-12.5Q410.32-12.5 408.6-13.5 406.87-14.5 405.87-16.23 404.87-17.95 404.87-20L404.87-20Q404.87-22.1 405.87-23.8 406.87-25.5 408.6-26.5 410.32-27.5 412.37-27.5L412.37-27.5 432.37-27.5 432.37-22.5 412.37-22.5Q411.32-22.5 410.6-21.78 409.87-21.05 409.87-20L409.87-20Q409.87-18.95 410.6-18.23 411.32-17.5 412.37-17.5L412.37-17.5 426.12-17.5Q428.57-17.5 430.55-16.32 432.52-15.15 433.7-13.18 434.87-11.2 434.87-8.75ZM449.67-22.5L449.67 0 444.67 0 444.67-22.5 437.17-22.5 437.17-27.5 444.67-27.5 444.67-37.5 449.67-37.5 449.67-27.5 467.17-27.5 467.17-22.5 449.67-22.5ZM477.37-33.75L477.37-33.75Q477.37-32.2 476.27-31.1 475.17-30 473.62-30L473.62-30Q472.07-30 470.97-31.1 469.87-32.2 469.87-33.75L469.87-33.75Q469.87-35.3 470.97-36.4 472.07-37.5 473.62-37.5L473.62-37.5Q475.17-37.5 476.27-36.4 477.37-35.3 477.37-33.75ZM476.12-27.5L476.12 0 471.12 0 471.12-27.5 476.12-27.5ZM511.56-5L511.56 0 495.21 0Q492.36 0 489.89-1.07 487.41-2.15 485.54-4.05 483.66-5.95 482.61-8.43 481.56-10.9 481.56-13.75L481.56-13.75Q481.56-16.6 482.61-19.07 483.66-21.55 485.54-23.45 487.41-25.35 489.89-26.43 492.36-27.5 495.21-27.5L495.21-27.5 511.56-27.5 511.56-22.5 495.21-22.5Q492.81-22.5 490.86-21.3 488.91-20.1 487.74-18.13 486.56-16.15 486.56-13.75L486.56-13.75Q486.56-11.35 487.74-9.38 488.91-7.4 490.86-6.2 492.81-5 495.21-5L495.21-5 511.56-5ZM575.06-10L575.06-10Q575.06-7.25 573.71-4.98 572.36-2.7 570.11-1.35 567.86 0 565.06 0L565.06 0 534.66 0 534.66-5 565.06-5Q567.16-5 568.61-6.48 570.06-7.95 570.06-10L570.06-10Q570.06-12.05 568.61-13.53 567.16-15 565.06-15L565.06-15 544.66-15Q541.91-15 539.63-16.35 537.36-17.7 536.01-19.98 534.66-22.25 534.66-25L534.66-25Q534.66-27.75 536.01-30.03 537.36-32.3 539.63-33.65 541.91-35 544.66-35L544.66-35 572.56-35 572.56-30 544.66-30Q542.61-30 541.13-28.53 539.66-27.05 539.66-25L539.66-25Q539.66-22.95 541.13-21.48 542.61-20 544.66-20L544.66-20 565.06-20Q567.86-20 570.11-18.65 572.36-17.3 573.71-15.03 575.06-12.75 575.06-10ZM612.7-13.75L612.7 0 607.7 0 607.7-13.75Q607.7-16.15 606.55-18.13 605.4-20.1 603.43-21.3 601.45-22.5 599.05-22.5L599.05-22.5 585.3-22.5 585.3 0 580.3 0 580.3-37.5 585.3-37.5 585.3-27.5 599.05-27.5Q601.9-27.5 604.38-26.43 606.85-25.35 608.73-23.45 610.6-21.55 611.65-19.07 612.7-16.6 612.7-13.75L612.7-13.75ZM625.7-33.75L625.7-33.75Q625.7-32.2 624.6-31.1 623.5-30 621.95-30L621.95-30Q620.4-30 619.3-31.1 618.2-32.2 618.2-33.75L618.2-33.75Q618.2-35.3 619.3-36.4 620.4-37.5 621.95-37.5L621.95-37.5Q623.5-37.5 624.6-36.4 625.7-35.3 625.7-33.75ZM624.45-27.5L624.45 0 619.45 0 619.45-27.5 624.45-27.5ZM664.05-13.75L664.05-13.75Q664.05-10.9 663-8.43 661.95-5.95 660.07-4.05 658.2-2.15 655.72-1.07 653.25 0 650.4 0L650.4 0 639.15 0 639.15-5 650.4-5Q652.8-5.05 654.77-6.23 656.75-7.4 657.9-9.38 659.05-11.35 659.05-13.75L659.05-13.75Q659.05-16.15 657.9-18.15 656.75-20.15 654.77-21.33 652.8-22.5 650.4-22.5L650.4-22.5 636.65-22.5 636.65 10 631.65 10 631.65-27.5 650.4-27.5Q653.25-27.5 655.72-26.43 658.2-25.35 660.07-23.45 661.95-21.55 663-19.07 664.05-16.6 664.05-13.75ZM701.9-13.75L701.9-13.75Q701.9-10.9 700.85-8.43 699.8-5.95 697.92-4.05 696.05-2.15 693.57-1.07 691.1 0 688.25 0L688.25 0 677 0 677-5 688.25-5Q690.65-5.05 692.62-6.23 694.6-7.4 695.75-9.38 696.9-11.35 696.9-13.75L696.9-13.75Q696.9-16.15 695.75-18.15 694.6-20.15 692.62-21.33 690.65-22.5 688.25-22.5L688.25-22.5 674.5-22.5 674.5 10 669.5 10 669.5-27.5 688.25-27.5Q691.1-27.5 693.57-26.43 696.05-25.35 697.92-23.45 699.8-21.55 700.85-19.07 701.9-16.6 701.9-13.75ZM713.59-33.75L713.59-33.75Q713.59-32.2 712.49-31.1 711.39-30 709.84-30L709.84-30Q708.29-30 707.19-31.1 706.09-32.2 706.09-33.75L706.09-33.75Q706.09-35.3 707.19-36.4 708.29-37.5 709.84-37.5L709.84-37.5Q711.39-37.5 712.49-36.4 713.59-35.3 713.59-33.75ZM712.34-27.5L712.34 0 707.34 0 707.34-27.5 712.34-27.5ZM724.54-22.5L724.54 0 719.54 0 719.54-27.5 738.29-27.5Q741.14-27.5 743.62-26.43 746.09-25.35 747.97-23.45 749.84-21.55 750.89-19.07 751.94-16.6 751.94-13.75L751.94-13.75 751.94 0 746.94 0 746.94-13.75Q746.94-16.15 745.79-18.13 744.64-20.1 742.67-21.3 740.69-22.5 738.29-22.5L738.29-22.5 724.54-22.5ZM789.34-27.5L789.34 1.25Q789.34 3.65 788.16 5.65 786.99 7.65 784.99 8.83 782.99 10 780.59 10L780.59 10 760.59 10 760.59 5 780.59 5Q782.14 5 783.24 3.9 784.34 2.8 784.34 1.25L784.34 1.25 784.34-22.5 770.59-22.5Q768.19-22.5 766.24-21.3 764.29-20.1 763.11-18.13 761.94-16.15 761.94-13.75L761.94-13.75Q761.94-11.35 763.11-9.38 764.29-7.4 766.24-6.23 768.19-5.05 770.59-5L770.59-5 781.84-5 781.84 0 770.59 0Q767.74 0 765.26-1.07 762.79-2.15 760.91-4.05 759.04-5.95 757.99-8.43 756.94-10.9 756.94-13.75L756.94-13.75Q756.94-16.6 757.99-19.07 759.04-21.55 760.91-23.45 762.79-25.35 765.26-26.43 767.74-27.5 770.59-27.5L770.59-27.5 789.34-27.5ZM841.08-17.5L841.08 0 836.08 0 836.08-17.5Q836.08-20.95 834.41-23.8 832.73-26.65 829.88-28.33 827.03-30 823.58-30L823.58-30 820.88-30 820.88 0 815.88 0 815.88-35 823.58-35Q828.33-35 832.31-32.65 836.28-30.3 838.58-26.5L838.58-26.5Q840.88-30.3 844.86-32.65 848.83-35 853.58-35L853.58-35 861.28-35 861.28 0 856.28 0 856.28-30 853.58-30Q850.13-30 847.31-28.33 844.48-26.65 842.78-23.8 841.08-20.95 841.08-17.5L841.08-17.5ZM900.38-18.75L900.38 0 875.38 0Q872.98 0 870.98-1.18 868.98-2.35 867.81-4.33 866.63-6.3 866.63-8.75L866.63-8.75Q866.63-11.2 867.81-13.18 868.98-15.15 870.98-16.32 872.98-17.5 875.38-17.5L875.38-17.5 892.88-17.5 892.88-12.5 875.38-12.5Q873.83-12.5 872.73-11.4 871.63-10.3 871.63-8.75L871.63-8.75Q871.63-7.2 872.73-6.1 873.83-5 875.38-5L875.38-5 895.38-5 895.38-18.75Q895.38-20.3 894.28-21.4 893.18-22.5 891.63-22.5L891.63-22.5 871.63-22.5 871.63-27.5 891.63-27.5Q894.08-27.5 896.06-26.33 898.03-25.15 899.21-23.18 900.38-21.2 900.38-18.75L900.38-18.75ZM912.38-22.5L912.38 0 907.38 0 907.38-27.5 926.13-27.5Q928.98-27.5 931.45-26.43 933.93-25.35 935.8-23.45 937.68-21.55 938.73-19.07 939.78-16.6 939.78-13.75L939.78-13.75 939.78 0 934.78 0 934.78-13.75Q934.78-16.15 933.63-18.13 932.48-20.1 930.5-21.3 928.53-22.5 926.13-22.5L926.13-22.5 912.38-22.5ZM977.18-27.5L977.18 1.25Q977.18 3.65 976 5.65 974.83 7.65 972.83 8.83 970.83 10 968.43 10L968.43 10 948.43 10 948.43 5 968.43 5Q969.98 5 971.08 3.9 972.18 2.8 972.18 1.25L972.18 1.25 972.18-22.5 958.43-22.5Q956.03-22.5 954.08-21.3 952.13-20.1 950.95-18.13 949.78-16.15 949.78-13.75L949.78-13.75Q949.78-11.35 950.95-9.38 952.13-7.4 954.08-6.23 956.03-5.05 958.43-5L958.43-5 969.68-5 969.68 0 958.43 0Q955.58 0 953.1-1.07 950.63-2.15 948.75-4.05 946.88-5.95 945.83-8.43 944.78-10.9 944.78-13.75L944.78-13.75Q944.78-16.6 945.83-19.07 946.88-21.55 948.75-23.45 950.63-25.35 953.1-26.43 955.58-27.5 958.43-27.5L958.43-27.5 977.18-27.5ZM1016.37-18.75L1016.37-18.75Q1016.37-16.35 1015.2-14.35 1014.02-12.35 1012.05-11.18 1010.07-10 1007.62-10L1007.62-10 988.47-10Q989.52-7.8 991.6-6.4 993.67-5 996.27-5L996.27-5 1012.62-5 1012.62 0 996.27 0Q993.42 0 990.95-1.07 988.47-2.15 986.6-4.05 984.72-5.95 983.67-8.43 982.62-10.9 982.62-13.75L982.62-13.75Q982.62-16.6 983.67-19.07 984.72-21.55 986.6-23.45 988.47-25.35 990.95-26.43 993.42-27.5 996.27-27.5L996.27-27.5 1007.62-27.5Q1010.07-27.5 1012.05-26.33 1014.02-25.15 1015.2-23.18 1016.37-21.2 1016.37-18.75ZM987.72-15L1007.62-15Q1009.17-15 1010.27-16.1 1011.37-17.2 1011.37-18.75L1011.37-18.75Q1011.37-20.3 1010.27-21.4 1009.17-22.5 1007.62-22.5L1007.62-22.5 996.27-22.5Q994.07-22.5 992.25-21.5 990.42-20.5 989.22-18.8 988.02-17.1 987.72-15L987.72-15ZM1048.57-27.5L1048.57-22.5 1029.82-22.5Q1028.27-22.5 1027.17-21.4 1026.07-20.3 1026.07-18.75L1026.07-18.75 1026.07 0 1021.07 0 1021.07-18.75Q1021.07-21.2 1022.25-23.18 1023.42-25.15 1025.42-26.33 1027.42-27.5 1029.82-27.5L1029.82-27.5 1048.57-27.5Z" opacity="1" transform="matrix(1,0,0,1,0,0)" fill="#000000" class="slogan-text-1" data-fill-palette-color="secondary" id="text-1"></path></svg></g></svg></g></svg></g></svg></g><g transform="matrix(1,0,0,1,452.6713389678732,0)"><svg viewBox="0 0 212.8962168098406 188.209193451817" height="188.209193451817" width="212.8962168098406"><g><svg xmlns:x="http://ns.adobe.com/Extensibility/1.0/" xmlns:i="http://ns.adobe.com/AdobeIllustrator/10.0/" xmlns:graph="http://ns.adobe.com/Graphs/1.0/" xmlns="http://www.w3.org/2000/svg" xmlns:xlink="http://www.w3.org/1999/xlink" version="1.1" x="0" y="0" viewBox="1.1945964087349679 6.89798108460233 97.51124900605396 86.20403783079534" enable-background="new 0 0 100 100" xml:space="preserve" height="188.209193451817" width="212.8962168098406" class="icon-icon-0" data-fill-palette-color="accent" id="icon-0"><path d="M96.4 33.9H77.8c-0.3-2.8-2.8-5.1-5.7-5.1H44.3 29.6c-1.9 0-3.7 1-4.7 2.5-0.1 0.1-0.1 0.2-0.2 0.3L17.8 42 10 42.7c-3.3 0-5.9 2.7-5.9 5.9v8.6c-1.7 0.1-3 1.6-2.9 3.6V65c0 1.9 1.6 3.4 3.4 3.4h4.2c1 3.8 4.5 6.5 8.6 6.5s7.5-2.8 8.6-6.5h18.5 10.8c1 3.8 4.5 6.5 8.6 6.5 4.1 0 7.5-2.8 8.6-6.5H77c1.9 0 3.4-1.6 3.4-3.4v-4.3c0-1.6-1-2.9-2.5-3.3H84c1.4 0 2.4-1.1 2.4-2.4 0-1.4-1.1-2.4-2.4-2.4h-6.1H67.5c-1.4 0-2.4-1.1-2.4-2.4 0-1.4 1.1-2.4 2.4-2.4h10.5 12.8c1.4 0 2.4-1.1 2.4-2.4 0-1.4-1.1-2.4-2.4-2.4H77.9h-2.8c-1.4 0-2.4-1.1-2.4-2.4 0-1.1 0.9-2.1 2-2.3 0.1 0 0.2 0 0.3 0h21.3c1.4 0 2.4-1.1 2.4-2.4C98.8 34.9 97.6 33.9 96.4 33.9zM17.2 69.9c-2.5 0-4.5-2-4.5-4.5 0-2.5 2-4.5 4.5-4.5s4.5 2 4.5 4.5C21.7 67.9 19.7 69.9 17.2 69.9zM68.2 65.4c0 2.5-2 4.5-4.5 4.5s-4.5-2-4.5-4.5c0-2.5 2-4.5 4.5-4.5S68.2 63 68.2 65.4zM68.6 80.2v3.3h15.6c4.2 0 7.6-3.4 7.6-7.6v-8h5.5v8c0 7.2-5.9 13.1-13.1 13.1H68.6v3.3c0 0.6-0.7 1-1.2 0.7l-10.5-6.1c-0.5-0.3-0.5-1.1 0-1.4l10.5-6.1C67.9 79.1 68.6 79.5 68.6 80.2zM36.8 19.8v-3.3H21.3c-4.2 0-7.6 3.4-7.6 7.6v8H8.2v-8c0-7.2 5.9-13.1 13.1-13.1h15.6V7.7c0-0.6 0.7-1 1.2-0.7l10.5 6.1c0.5 0.3 0.5 1.1 0 1.4l-10.5 6.1C37.5 20.9 36.8 20.5 36.8 19.8z" fill="#000000" data-fill-palette-color="accent"></path></svg><g></g></g></svg></g></svg></g><defs></defs></svg><rect width="395.52" height="111.8451456172306" fill="none" stroke="none" visibility="hidden"></rect></g></svg></g></svg>